<mxfile host="app.diagrams.net" modified="2023-01-11T12:09:30.735Z" agent="5.0 (Macintosh; Intel Mac OS X 10_15_7) AppleWebKit/537.36 (KHTML, like Gecko) Chrome/108.0.0.0 Safari/537.36" etag="X9Y_ZVDlQ9YNy4ppZWUl" version="20.8.3" type="github">
  <diagram id="gHdGT0hqlNenqPQnGmaF" name="第 1 页">
    <mxGraphModel dx="3328" dy="828" grid="1" gridSize="10" guides="1" tooltips="1" connect="1" arrows="1" fold="1" page="1" pageScale="1" pageWidth="827" pageHeight="1169" math="0" shadow="0">
      <root>
        <mxCell id="0" />
        <mxCell id="1" parent="0" />
        <mxCell id="6_AVYcbNs08KcEML1Ji8-1" value="功能模块图" style="text;html=1;strokeColor=#6c8ebf;fillColor=#dae8fc;align=center;verticalAlign=middle;whiteSpace=wrap;rounded=0;fontSize=27;" parent="1" vertex="1">
          <mxGeometry y="10" width="680" height="60" as="geometry" />
        </mxCell>
        <mxCell id="wtcgkGCjL-V0qk2THGTA-8" value="" style="edgeStyle=orthogonalEdgeStyle;rounded=0;orthogonalLoop=1;jettySize=auto;html=1;" parent="1" target="wtcgkGCjL-V0qk2THGTA-3" edge="1">
          <mxGeometry relative="1" as="geometry">
            <mxPoint x="590" y="295" as="sourcePoint" />
            <Array as="points">
              <mxPoint x="590" y="145" />
            </Array>
          </mxGeometry>
        </mxCell>
        <mxCell id="wtcgkGCjL-V0qk2THGTA-10" style="edgeStyle=orthogonalEdgeStyle;rounded=0;orthogonalLoop=1;jettySize=auto;html=1;exitX=1;exitY=0.5;exitDx=0;exitDy=0;entryX=0;entryY=0.5;entryDx=0;entryDy=0;" parent="1" source="6_AVYcbNs08KcEML1Ji8-2" target="6_AVYcbNs08KcEML1Ji8-4" edge="1">
          <mxGeometry relative="1" as="geometry" />
        </mxCell>
        <mxCell id="wtcgkGCjL-V0qk2THGTA-11" style="edgeStyle=orthogonalEdgeStyle;rounded=0;orthogonalLoop=1;jettySize=auto;html=1;exitX=1;exitY=0.5;exitDx=0;exitDy=0;entryX=0;entryY=0.5;entryDx=0;entryDy=0;" parent="1" source="6_AVYcbNs08KcEML1Ji8-2" target="6_AVYcbNs08KcEML1Ji8-8" edge="1">
          <mxGeometry relative="1" as="geometry" />
        </mxCell>
        <mxCell id="wtcgkGCjL-V0qk2THGTA-12" style="edgeStyle=orthogonalEdgeStyle;rounded=0;orthogonalLoop=1;jettySize=auto;html=1;exitX=1;exitY=0.5;exitDx=0;exitDy=0;entryX=0;entryY=0.5;entryDx=0;entryDy=0;" parent="1" source="6_AVYcbNs08KcEML1Ji8-2" target="6_AVYcbNs08KcEML1Ji8-9" edge="1">
          <mxGeometry relative="1" as="geometry" />
        </mxCell>
        <mxCell id="wtcgkGCjL-V0qk2THGTA-13" style="edgeStyle=orthogonalEdgeStyle;rounded=0;orthogonalLoop=1;jettySize=auto;html=1;exitX=1;exitY=0.5;exitDx=0;exitDy=0;entryX=0;entryY=0.5;entryDx=0;entryDy=0;" parent="1" source="6_AVYcbNs08KcEML1Ji8-2" target="wtcgkGCjL-V0qk2THGTA-2" edge="1">
          <mxGeometry relative="1" as="geometry" />
        </mxCell>
        <mxCell id="jG9ODHnWhC-1K8Zq-rV6-2" style="edgeStyle=orthogonalEdgeStyle;rounded=0;orthogonalLoop=1;jettySize=auto;html=1;exitX=1;exitY=0.5;exitDx=0;exitDy=0;entryX=0;entryY=0.5;entryDx=0;entryDy=0;" parent="1" source="6_AVYcbNs08KcEML1Ji8-2" target="jG9ODHnWhC-1K8Zq-rV6-1" edge="1">
          <mxGeometry relative="1" as="geometry" />
        </mxCell>
        <mxCell id="6_AVYcbNs08KcEML1Ji8-2" value="（1）网站端" style="rounded=1;whiteSpace=wrap;html=1;fontSize=14;fillColor=#dae8fc;strokeColor=#6c8ebf;" parent="1" vertex="1">
          <mxGeometry x="440" y="270" width="120" height="50" as="geometry" />
        </mxCell>
        <mxCell id="wtcgkGCjL-V0qk2THGTA-17" style="edgeStyle=orthogonalEdgeStyle;rounded=0;orthogonalLoop=1;jettySize=auto;html=1;exitX=1;exitY=0.5;exitDx=0;exitDy=0;entryX=0;entryY=0.5;entryDx=0;entryDy=0;" parent="1" source="6_AVYcbNs08KcEML1Ji8-4" target="wtcgkGCjL-V0qk2THGTA-4" edge="1">
          <mxGeometry relative="1" as="geometry" />
        </mxCell>
        <mxCell id="wtcgkGCjL-V0qk2THGTA-18" style="edgeStyle=orthogonalEdgeStyle;rounded=0;orthogonalLoop=1;jettySize=auto;html=1;exitX=1;exitY=0.5;exitDx=0;exitDy=0;entryX=0;entryY=0.5;entryDx=0;entryDy=0;" parent="1" source="6_AVYcbNs08KcEML1Ji8-4" target="wtcgkGCjL-V0qk2THGTA-5" edge="1">
          <mxGeometry relative="1" as="geometry" />
        </mxCell>
        <mxCell id="6_AVYcbNs08KcEML1Ji8-4" value="数据可视化" style="rounded=1;whiteSpace=wrap;html=1;fontSize=14;fillColor=#d5e8d4;strokeColor=#82b366;" parent="1" vertex="1">
          <mxGeometry x="620" y="180" width="120" height="30" as="geometry" />
        </mxCell>
        <mxCell id="wtcgkGCjL-V0qk2THGTA-16" style="edgeStyle=orthogonalEdgeStyle;rounded=0;orthogonalLoop=1;jettySize=auto;html=1;exitX=1;exitY=0.5;exitDx=0;exitDy=0;entryX=0;entryY=0.5;entryDx=0;entryDy=0;" parent="1" source="6_AVYcbNs08KcEML1Ji8-8" target="wtcgkGCjL-V0qk2THGTA-15" edge="1">
          <mxGeometry relative="1" as="geometry" />
        </mxCell>
        <mxCell id="6_AVYcbNs08KcEML1Ji8-8" value="美食推荐" style="rounded=1;whiteSpace=wrap;html=1;fontSize=14;fillColor=#e1d5e7;strokeColor=#9673a6;" parent="1" vertex="1">
          <mxGeometry x="620" y="240" width="120" height="30" as="geometry" />
        </mxCell>
        <mxCell id="wtcgkGCjL-V0qk2THGTA-14" style="edgeStyle=orthogonalEdgeStyle;rounded=0;orthogonalLoop=1;jettySize=auto;html=1;exitX=1;exitY=0.5;exitDx=0;exitDy=0;entryX=0;entryY=0.5;entryDx=0;entryDy=0;" parent="1" source="6_AVYcbNs08KcEML1Ji8-9" target="wtcgkGCjL-V0qk2THGTA-6" edge="1">
          <mxGeometry relative="1" as="geometry" />
        </mxCell>
        <mxCell id="6_AVYcbNs08KcEML1Ji8-9" value="数据查询" style="rounded=1;whiteSpace=wrap;html=1;fontSize=14;fillColor=#d5e8d4;strokeColor=#82b366;" parent="1" vertex="1">
          <mxGeometry x="620" y="365" width="120" height="30" as="geometry" />
        </mxCell>
        <mxCell id="wtcgkGCjL-V0qk2THGTA-2" value="浏览历史记录" style="rounded=1;whiteSpace=wrap;html=1;fontSize=14;fillColor=#d5e8d4;strokeColor=#82b366;" parent="1" vertex="1">
          <mxGeometry x="620" y="415" width="120" height="30" as="geometry" />
        </mxCell>
        <mxCell id="wtcgkGCjL-V0qk2THGTA-3" value="登录与注册" style="rounded=1;whiteSpace=wrap;html=1;fontSize=14;fillColor=#fff2cc;strokeColor=#d6b656;" parent="1" vertex="1">
          <mxGeometry x="620" y="130" width="120" height="30" as="geometry" />
        </mxCell>
        <mxCell id="wtcgkGCjL-V0qk2THGTA-4" value="Echarts可视化" style="rounded=1;whiteSpace=wrap;html=1;fontSize=14;fillColor=#d5e8d4;strokeColor=#82b366;" parent="1" vertex="1">
          <mxGeometry x="780" y="150" width="120" height="30" as="geometry" />
        </mxCell>
        <mxCell id="wtcgkGCjL-V0qk2THGTA-5" value="词云|百度热力图" style="rounded=1;whiteSpace=wrap;html=1;fontSize=14;fillColor=#d5e8d4;strokeColor=#82b366;" parent="1" vertex="1">
          <mxGeometry x="780" y="200" width="120" height="30" as="geometry" />
        </mxCell>
        <mxCell id="wtcgkGCjL-V0qk2THGTA-6" value="分页/模糊查询" style="rounded=1;whiteSpace=wrap;html=1;fontSize=14;fillColor=#d5e8d4;strokeColor=#82b366;" parent="1" vertex="1">
          <mxGeometry x="780" y="365" width="120" height="30" as="geometry" />
        </mxCell>
        <mxCell id="wtcgkGCjL-V0qk2THGTA-15" value="双协同过滤推荐算法" style="rounded=1;whiteSpace=wrap;html=1;fontSize=14;fillColor=#e1d5e7;strokeColor=#9673a6;" parent="1" vertex="1">
          <mxGeometry x="780" y="240" width="150" height="30" as="geometry" />
        </mxCell>
        <mxCell id="U2U8d9sQ9sILnOG547oe-28" style="edgeStyle=orthogonalEdgeStyle;rounded=0;orthogonalLoop=1;jettySize=auto;html=1;exitX=1;exitY=0.5;exitDx=0;exitDy=0;entryX=0;entryY=0.5;entryDx=0;entryDy=0;" parent="1" source="wtcgkGCjL-V0qk2THGTA-19" target="U2U8d9sQ9sILnOG547oe-27" edge="1">
          <mxGeometry relative="1" as="geometry" />
        </mxCell>
        <mxCell id="wtcgkGCjL-V0qk2THGTA-19" value="（4）爬虫" style="rounded=1;whiteSpace=wrap;html=1;fontSize=14;fillColor=#f5f5f5;strokeColor=#666666;fontColor=#333333;" parent="1" vertex="1">
          <mxGeometry x="440" y="450" width="120" height="50" as="geometry" />
        </mxCell>
        <mxCell id="b_gnWmMxrn5kn90ioG4K-3" style="edgeStyle=orthogonalEdgeStyle;rounded=0;orthogonalLoop=1;jettySize=auto;html=1;exitX=1;exitY=0.5;exitDx=0;exitDy=0;entryX=0;entryY=0.5;entryDx=0;entryDy=0;" parent="1" source="jG9ODHnWhC-1K8Zq-rV6-1" target="b_gnWmMxrn5kn90ioG4K-1" edge="1">
          <mxGeometry relative="1" as="geometry" />
        </mxCell>
        <mxCell id="b_gnWmMxrn5kn90ioG4K-4" style="edgeStyle=orthogonalEdgeStyle;rounded=0;orthogonalLoop=1;jettySize=auto;html=1;exitX=1;exitY=0.5;exitDx=0;exitDy=0;entryX=0;entryY=0.5;entryDx=0;entryDy=0;" parent="1" source="jG9ODHnWhC-1K8Zq-rV6-1" target="b_gnWmMxrn5kn90ioG4K-2" edge="1">
          <mxGeometry relative="1" as="geometry" />
        </mxCell>
        <mxCell id="jG9ODHnWhC-1K8Zq-rV6-1" value="个人中心" style="rounded=1;whiteSpace=wrap;html=1;fontSize=14;fillColor=#d5e8d4;strokeColor=#82b366;" parent="1" vertex="1">
          <mxGeometry x="620" y="300" width="120" height="30" as="geometry" />
        </mxCell>
        <mxCell id="IFDbjYEKfMzznov-QCEN-2" style="edgeStyle=orthogonalEdgeStyle;rounded=0;orthogonalLoop=1;jettySize=auto;html=1;exitX=0.5;exitY=1;exitDx=0;exitDy=0;" parent="1" source="wtcgkGCjL-V0qk2THGTA-6" target="wtcgkGCjL-V0qk2THGTA-6" edge="1">
          <mxGeometry relative="1" as="geometry" />
        </mxCell>
        <mxCell id="IFDbjYEKfMzznov-QCEN-6" style="edgeStyle=orthogonalEdgeStyle;rounded=0;orthogonalLoop=1;jettySize=auto;html=1;exitX=0;exitY=0.5;exitDx=0;exitDy=0;entryX=1;entryY=0.5;entryDx=0;entryDy=0;fontSize=17;" parent="1" source="IFDbjYEKfMzznov-QCEN-3" target="IFDbjYEKfMzznov-QCEN-4" edge="1">
          <mxGeometry relative="1" as="geometry" />
        </mxCell>
        <mxCell id="IFDbjYEKfMzznov-QCEN-7" style="edgeStyle=orthogonalEdgeStyle;rounded=0;orthogonalLoop=1;jettySize=auto;html=1;exitX=1;exitY=0.5;exitDx=0;exitDy=0;entryX=0;entryY=0.5;entryDx=0;entryDy=0;fontSize=17;" parent="1" source="IFDbjYEKfMzznov-QCEN-3" target="6_AVYcbNs08KcEML1Ji8-2" edge="1">
          <mxGeometry relative="1" as="geometry" />
        </mxCell>
        <mxCell id="IFDbjYEKfMzznov-QCEN-8" style="edgeStyle=orthogonalEdgeStyle;rounded=0;orthogonalLoop=1;jettySize=auto;html=1;exitX=1;exitY=0.5;exitDx=0;exitDy=0;entryX=0;entryY=0.5;entryDx=0;entryDy=0;fontSize=17;" parent="1" source="IFDbjYEKfMzznov-QCEN-3" target="wtcgkGCjL-V0qk2THGTA-19" edge="1">
          <mxGeometry relative="1" as="geometry" />
        </mxCell>
        <mxCell id="IFDbjYEKfMzznov-QCEN-9" style="edgeStyle=orthogonalEdgeStyle;rounded=0;orthogonalLoop=1;jettySize=auto;html=1;exitX=0;exitY=0.5;exitDx=0;exitDy=0;entryX=1;entryY=0.5;entryDx=0;entryDy=0;fontSize=17;" parent="1" source="IFDbjYEKfMzznov-QCEN-3" target="IFDbjYEKfMzznov-QCEN-5" edge="1">
          <mxGeometry relative="1" as="geometry" />
        </mxCell>
        <mxCell id="IFDbjYEKfMzznov-QCEN-3" value="Sparkl旅游&lt;br&gt;大数据平台" style="rounded=1;whiteSpace=wrap;html=1;fontSize=17;fillColor=#60a917;strokeColor=#2D7600;fontColor=#ffffff;" parent="1" vertex="1">
          <mxGeometry x="280" y="350" width="120" height="60" as="geometry" />
        </mxCell>
        <mxCell id="U2U8d9sQ9sILnOG547oe-15" style="edgeStyle=orthogonalEdgeStyle;rounded=0;orthogonalLoop=1;jettySize=auto;html=1;exitX=0;exitY=0.5;exitDx=0;exitDy=0;entryX=1;entryY=0.5;entryDx=0;entryDy=0;" parent="1" source="IFDbjYEKfMzznov-QCEN-4" target="U2U8d9sQ9sILnOG547oe-13" edge="1">
          <mxGeometry relative="1" as="geometry" />
        </mxCell>
        <mxCell id="U2U8d9sQ9sILnOG547oe-23" style="edgeStyle=orthogonalEdgeStyle;rounded=0;orthogonalLoop=1;jettySize=auto;html=1;exitX=0;exitY=0.5;exitDx=0;exitDy=0;entryX=1;entryY=0.5;entryDx=0;entryDy=0;" parent="1" source="IFDbjYEKfMzznov-QCEN-4" target="U2U8d9sQ9sILnOG547oe-14" edge="1">
          <mxGeometry relative="1" as="geometry" />
        </mxCell>
        <mxCell id="U2U8d9sQ9sILnOG547oe-24" style="edgeStyle=orthogonalEdgeStyle;rounded=0;orthogonalLoop=1;jettySize=auto;html=1;exitX=0;exitY=0.5;exitDx=0;exitDy=0;entryX=1;entryY=0.5;entryDx=0;entryDy=0;" parent="1" source="IFDbjYEKfMzznov-QCEN-4" target="U2U8d9sQ9sILnOG547oe-2" edge="1">
          <mxGeometry relative="1" as="geometry" />
        </mxCell>
        <mxCell id="GiAVZ2iymkBQcYbTgc6A-2" style="edgeStyle=orthogonalEdgeStyle;rounded=0;orthogonalLoop=1;jettySize=auto;html=1;exitX=0;exitY=0.5;exitDx=0;exitDy=0;entryX=1;entryY=0.5;entryDx=0;entryDy=0;" edge="1" parent="1" source="IFDbjYEKfMzznov-QCEN-4" target="GiAVZ2iymkBQcYbTgc6A-1">
          <mxGeometry relative="1" as="geometry" />
        </mxCell>
        <mxCell id="IFDbjYEKfMzznov-QCEN-4" value="（2）管理端" style="rounded=1;whiteSpace=wrap;html=1;fontSize=14;fillColor=#d5e8d4;strokeColor=#82b366;" parent="1" vertex="1">
          <mxGeometry x="120" y="270" width="120" height="50" as="geometry" />
        </mxCell>
        <mxCell id="U2U8d9sQ9sILnOG547oe-26" style="edgeStyle=orthogonalEdgeStyle;rounded=0;orthogonalLoop=1;jettySize=auto;html=1;exitX=0;exitY=0.5;exitDx=0;exitDy=0;entryX=1;entryY=0.5;entryDx=0;entryDy=0;" parent="1" source="IFDbjYEKfMzznov-QCEN-5" target="U2U8d9sQ9sILnOG547oe-25" edge="1">
          <mxGeometry relative="1" as="geometry" />
        </mxCell>
        <mxCell id="IFDbjYEKfMzznov-QCEN-5" value="（3）大屏端" style="rounded=1;whiteSpace=wrap;html=1;fontSize=14;fillColor=#d80073;strokeColor=#A50040;fontColor=#ffffff;" parent="1" vertex="1">
          <mxGeometry x="120" y="451.25" width="120" height="47.5" as="geometry" />
        </mxCell>
        <mxCell id="U2U8d9sQ9sILnOG547oe-1" value="用户管理" style="rounded=1;whiteSpace=wrap;html=1;fontSize=14;fillColor=#e1d5e7;strokeColor=#9673a6;" parent="1" vertex="1">
          <mxGeometry x="-200" y="240" width="120" height="30" as="geometry" />
        </mxCell>
        <mxCell id="U2U8d9sQ9sILnOG547oe-2" value="登录与注册" style="rounded=1;whiteSpace=wrap;html=1;fontSize=14;fillColor=#fff2cc;strokeColor=#d6b656;" parent="1" vertex="1">
          <mxGeometry x="-40" y="180" width="120" height="30" as="geometry" />
        </mxCell>
        <mxCell id="U2U8d9sQ9sILnOG547oe-3" value="系统权限" style="rounded=1;whiteSpace=wrap;html=1;fontSize=14;fillColor=#e1d5e7;strokeColor=#9673a6;" parent="1" vertex="1">
          <mxGeometry x="-200" y="160" width="120" height="30" as="geometry" />
        </mxCell>
        <mxCell id="U2U8d9sQ9sILnOG547oe-7" value="订单管理" style="rounded=1;whiteSpace=wrap;html=1;fontSize=14;fillColor=#e1d5e7;strokeColor=#9673a6;" parent="1" vertex="1">
          <mxGeometry x="-200" y="280" width="120" height="30" as="geometry" />
        </mxCell>
        <mxCell id="U2U8d9sQ9sILnOG547oe-9" value="日志管理" style="rounded=1;whiteSpace=wrap;html=1;fontSize=14;fillColor=#e1d5e7;strokeColor=#9673a6;" parent="1" vertex="1">
          <mxGeometry x="-200" y="200" width="120" height="30" as="geometry" />
        </mxCell>
        <mxCell id="U2U8d9sQ9sILnOG547oe-13" value="旅游景点管理" style="rounded=1;whiteSpace=wrap;html=1;fontSize=14;fillColor=#f8cecc;strokeColor=#b85450;" parent="1" vertex="1">
          <mxGeometry x="-40" y="330" width="120" height="30" as="geometry" />
        </mxCell>
        <mxCell id="U2U8d9sQ9sILnOG547oe-19" style="edgeStyle=orthogonalEdgeStyle;rounded=0;orthogonalLoop=1;jettySize=auto;html=1;exitX=0;exitY=0.5;exitDx=0;exitDy=0;entryX=1;entryY=0.5;entryDx=0;entryDy=0;" parent="1" source="U2U8d9sQ9sILnOG547oe-14" target="U2U8d9sQ9sILnOG547oe-9" edge="1">
          <mxGeometry relative="1" as="geometry" />
        </mxCell>
        <mxCell id="U2U8d9sQ9sILnOG547oe-20" style="edgeStyle=orthogonalEdgeStyle;rounded=0;orthogonalLoop=1;jettySize=auto;html=1;exitX=0;exitY=0.5;exitDx=0;exitDy=0;entryX=1;entryY=0.5;entryDx=0;entryDy=0;" parent="1" source="U2U8d9sQ9sILnOG547oe-14" target="U2U8d9sQ9sILnOG547oe-1" edge="1">
          <mxGeometry relative="1" as="geometry" />
        </mxCell>
        <mxCell id="U2U8d9sQ9sILnOG547oe-21" style="edgeStyle=orthogonalEdgeStyle;rounded=0;orthogonalLoop=1;jettySize=auto;html=1;exitX=0;exitY=0.5;exitDx=0;exitDy=0;entryX=1;entryY=0.5;entryDx=0;entryDy=0;" parent="1" source="U2U8d9sQ9sILnOG547oe-14" target="U2U8d9sQ9sILnOG547oe-7" edge="1">
          <mxGeometry relative="1" as="geometry" />
        </mxCell>
        <mxCell id="U2U8d9sQ9sILnOG547oe-22" style="edgeStyle=orthogonalEdgeStyle;rounded=0;orthogonalLoop=1;jettySize=auto;html=1;exitX=0;exitY=0.5;exitDx=0;exitDy=0;entryX=1;entryY=0.5;entryDx=0;entryDy=0;" parent="1" source="U2U8d9sQ9sILnOG547oe-14" target="U2U8d9sQ9sILnOG547oe-3" edge="1">
          <mxGeometry relative="1" as="geometry" />
        </mxCell>
        <mxCell id="U2U8d9sQ9sILnOG547oe-14" value="系统管理" style="rounded=1;whiteSpace=wrap;html=1;fontSize=14;fillColor=#e1d5e7;strokeColor=#9673a6;" parent="1" vertex="1">
          <mxGeometry x="-40" y="260" width="120" height="30" as="geometry" />
        </mxCell>
        <mxCell id="U2U8d9sQ9sILnOG547oe-25" value="涵盖旅游的百度地图、热力图、词云、评论、得分、本系统平台的充值、包年包月、订单等多种角度的分析" style="rounded=1;whiteSpace=wrap;html=1;fontSize=14;fillColor=#d80073;strokeColor=#A50040;fontColor=#ffffff;" parent="1" vertex="1">
          <mxGeometry x="-190" y="480" width="240" height="90" as="geometry" />
        </mxCell>
        <mxCell id="U2U8d9sQ9sILnOG547oe-27" value="爬取美团店铺数据&lt;br&gt;（*样本为武汉，可以拓展其他城市）" style="rounded=1;whiteSpace=wrap;html=1;fontSize=14;fillColor=#f5f5f5;strokeColor=#666666;fontColor=#333333;" parent="1" vertex="1">
          <mxGeometry x="610" y="520" width="240" height="70" as="geometry" />
        </mxCell>
        <mxCell id="U2U8d9sQ9sILnOG547oe-29" value="&amp;nbsp; &amp;nbsp; &amp;nbsp;支付业务设计" style="text;html=1;strokeColor=#6c8ebf;fillColor=#dae8fc;align=center;verticalAlign=middle;whiteSpace=wrap;rounded=0;fontSize=27;" parent="1" vertex="1">
          <mxGeometry x="-780" y="780" width="680" height="60" as="geometry" />
        </mxCell>
        <mxCell id="U2U8d9sQ9sILnOG547oe-45" style="edgeStyle=orthogonalEdgeStyle;rounded=0;orthogonalLoop=1;jettySize=auto;html=1;exitX=1;exitY=0.5;exitDx=0;exitDy=0;entryX=0;entryY=0.5;entryDx=0;entryDy=0;fontSize=14;" parent="1" source="U2U8d9sQ9sILnOG547oe-30" target="U2U8d9sQ9sILnOG547oe-33" edge="1">
          <mxGeometry relative="1" as="geometry" />
        </mxCell>
        <mxCell id="U2U8d9sQ9sILnOG547oe-30" value="充值（输入金额）" style="rounded=1;whiteSpace=wrap;html=1;fontStyle=1;fontSize=14;fillColor=#ffe6cc;strokeColor=#d79b00;" parent="1" vertex="1">
          <mxGeometry x="-780" y="1059.5" width="120" height="60" as="geometry" />
        </mxCell>
        <mxCell id="U2U8d9sQ9sILnOG547oe-46" style="edgeStyle=orthogonalEdgeStyle;rounded=0;orthogonalLoop=1;jettySize=auto;html=1;exitX=1;exitY=0.5;exitDx=0;exitDy=0;fontSize=14;" parent="1" source="U2U8d9sQ9sILnOG547oe-31" edge="1">
          <mxGeometry relative="1" as="geometry">
            <mxPoint x="-600" y="1170" as="targetPoint" />
          </mxGeometry>
        </mxCell>
        <mxCell id="U2U8d9sQ9sILnOG547oe-31" value="包年会员" style="rounded=1;whiteSpace=wrap;html=1;fontStyle=1;fontSize=14;fillColor=#ffe6cc;strokeColor=#d79b00;" parent="1" vertex="1">
          <mxGeometry x="-780" y="1140" width="120" height="60" as="geometry" />
        </mxCell>
        <mxCell id="U2U8d9sQ9sILnOG547oe-44" style="edgeStyle=orthogonalEdgeStyle;rounded=0;orthogonalLoop=1;jettySize=auto;html=1;exitX=1;exitY=0.5;exitDx=0;exitDy=0;entryX=0;entryY=0.5;entryDx=0;entryDy=0;fontSize=14;" parent="1" source="U2U8d9sQ9sILnOG547oe-32" target="U2U8d9sQ9sILnOG547oe-33" edge="1">
          <mxGeometry relative="1" as="geometry" />
        </mxCell>
        <mxCell id="U2U8d9sQ9sILnOG547oe-32" value="包月会员" style="rounded=1;whiteSpace=wrap;html=1;fontStyle=1;fontSize=14;fillColor=#ffe6cc;strokeColor=#d79b00;" parent="1" vertex="1">
          <mxGeometry x="-780" y="1220" width="120" height="60" as="geometry" />
        </mxCell>
        <mxCell id="U2U8d9sQ9sILnOG547oe-47" style="edgeStyle=orthogonalEdgeStyle;rounded=0;orthogonalLoop=1;jettySize=auto;html=1;exitX=0.5;exitY=0;exitDx=0;exitDy=0;entryX=0.5;entryY=1;entryDx=0;entryDy=0;fontSize=14;" parent="1" source="U2U8d9sQ9sILnOG547oe-33" target="U2U8d9sQ9sILnOG547oe-34" edge="1">
          <mxGeometry relative="1" as="geometry" />
        </mxCell>
        <mxCell id="U2U8d9sQ9sILnOG547oe-33" value="点击支付，&lt;br&gt;产生订单" style="rounded=1;whiteSpace=wrap;html=1;fontStyle=1;fontSize=14;fillColor=#ffe6cc;strokeColor=#d79b00;" parent="1" vertex="1">
          <mxGeometry x="-600" y="1140" width="120" height="60" as="geometry" />
        </mxCell>
        <mxCell id="U2U8d9sQ9sILnOG547oe-48" style="edgeStyle=orthogonalEdgeStyle;rounded=0;orthogonalLoop=1;jettySize=auto;html=1;exitX=1;exitY=0.5;exitDx=0;exitDy=0;entryX=0;entryY=0.5;entryDx=0;entryDy=0;fontSize=14;" parent="1" source="U2U8d9sQ9sILnOG547oe-34" target="U2U8d9sQ9sILnOG547oe-35" edge="1">
          <mxGeometry relative="1" as="geometry" />
        </mxCell>
        <mxCell id="U2U8d9sQ9sILnOG547oe-34" value="支付宝沙箱登录" style="rounded=1;whiteSpace=wrap;html=1;fontStyle=1;fontSize=14;fillColor=#dae8fc;strokeColor=#6c8ebf;" parent="1" vertex="1">
          <mxGeometry x="-600" y="950" width="120" height="60" as="geometry" />
        </mxCell>
        <mxCell id="U2U8d9sQ9sILnOG547oe-49" style="edgeStyle=orthogonalEdgeStyle;rounded=0;orthogonalLoop=1;jettySize=auto;html=1;exitX=0.5;exitY=1;exitDx=0;exitDy=0;fontSize=14;entryX=0.5;entryY=0;entryDx=0;entryDy=0;" parent="1" source="U2U8d9sQ9sILnOG547oe-35" target="Yt5vqHqGk30RE-sgk8aL-1" edge="1">
          <mxGeometry relative="1" as="geometry">
            <mxPoint x="-300" y="1070" as="targetPoint" />
          </mxGeometry>
        </mxCell>
        <mxCell id="U2U8d9sQ9sILnOG547oe-35" value="输入支付密码&lt;br&gt;完成支付" style="rounded=1;whiteSpace=wrap;html=1;fontStyle=1;fontSize=14;fillColor=#dae8fc;strokeColor=#6c8ebf;" parent="1" vertex="1">
          <mxGeometry x="-440" y="950" width="120" height="60" as="geometry" />
        </mxCell>
        <mxCell id="U2U8d9sQ9sILnOG547oe-50" style="edgeStyle=orthogonalEdgeStyle;rounded=0;orthogonalLoop=1;jettySize=auto;html=1;exitX=1;exitY=0.5;exitDx=0;exitDy=0;entryX=0;entryY=0.5;entryDx=0;entryDy=0;fontSize=14;" parent="1" source="U2U8d9sQ9sILnOG547oe-36" target="U2U8d9sQ9sILnOG547oe-37" edge="1">
          <mxGeometry relative="1" as="geometry" />
        </mxCell>
        <mxCell id="U2U8d9sQ9sILnOG547oe-36" value="回调接口" style="rounded=1;whiteSpace=wrap;html=1;fontStyle=1;fontSize=14;fillColor=#ffe6cc;strokeColor=#d79b00;" parent="1" vertex="1">
          <mxGeometry x="-440" y="1140" width="120" height="60" as="geometry" />
        </mxCell>
        <mxCell id="U2U8d9sQ9sILnOG547oe-51" style="edgeStyle=orthogonalEdgeStyle;rounded=0;orthogonalLoop=1;jettySize=auto;html=1;exitX=1;exitY=0.5;exitDx=0;exitDy=0;entryX=0;entryY=0.5;entryDx=0;entryDy=0;fontSize=14;" parent="1" source="U2U8d9sQ9sILnOG547oe-37" target="U2U8d9sQ9sILnOG547oe-38" edge="1">
          <mxGeometry relative="1" as="geometry" />
        </mxCell>
        <mxCell id="U2U8d9sQ9sILnOG547oe-37" value="更新订单状态" style="rounded=1;whiteSpace=wrap;html=1;fontStyle=1;fontSize=14;fillColor=#ffe6cc;strokeColor=#d79b00;" parent="1" vertex="1">
          <mxGeometry x="-290" y="1140" width="120" height="60" as="geometry" />
        </mxCell>
        <mxCell id="U2U8d9sQ9sILnOG547oe-52" style="edgeStyle=orthogonalEdgeStyle;rounded=0;orthogonalLoop=1;jettySize=auto;html=1;exitX=0.5;exitY=1;exitDx=0;exitDy=0;fontSize=14;" parent="1" source="U2U8d9sQ9sILnOG547oe-38" target="U2U8d9sQ9sILnOG547oe-40" edge="1">
          <mxGeometry relative="1" as="geometry" />
        </mxCell>
        <mxCell id="U2U8d9sQ9sILnOG547oe-38" value="更新系统状态" style="rounded=1;whiteSpace=wrap;html=1;fontStyle=1;fontSize=14;fillColor=#ffe6cc;strokeColor=#d79b00;" parent="1" vertex="1">
          <mxGeometry x="-150" y="1140" width="120" height="60" as="geometry" />
        </mxCell>
        <mxCell id="U2U8d9sQ9sILnOG547oe-41" style="edgeStyle=orthogonalEdgeStyle;rounded=0;orthogonalLoop=1;jettySize=auto;html=1;exitX=1;exitY=0.5;exitDx=0;exitDy=0;entryX=0;entryY=0.5;entryDx=0;entryDy=0;fontSize=14;" parent="1" source="U2U8d9sQ9sILnOG547oe-39" target="U2U8d9sQ9sILnOG547oe-31" edge="1">
          <mxGeometry relative="1" as="geometry" />
        </mxCell>
        <mxCell id="U2U8d9sQ9sILnOG547oe-42" style="edgeStyle=orthogonalEdgeStyle;rounded=0;orthogonalLoop=1;jettySize=auto;html=1;exitX=1;exitY=0.5;exitDx=0;exitDy=0;entryX=0;entryY=0.5;entryDx=0;entryDy=0;fontSize=14;" parent="1" source="U2U8d9sQ9sILnOG547oe-39" target="U2U8d9sQ9sILnOG547oe-30" edge="1">
          <mxGeometry relative="1" as="geometry" />
        </mxCell>
        <mxCell id="U2U8d9sQ9sILnOG547oe-43" style="edgeStyle=orthogonalEdgeStyle;rounded=0;orthogonalLoop=1;jettySize=auto;html=1;exitX=1;exitY=0.5;exitDx=0;exitDy=0;entryX=0;entryY=0.5;entryDx=0;entryDy=0;fontSize=14;" parent="1" source="U2U8d9sQ9sILnOG547oe-39" target="U2U8d9sQ9sILnOG547oe-32" edge="1">
          <mxGeometry relative="1" as="geometry" />
        </mxCell>
        <mxCell id="U2U8d9sQ9sILnOG547oe-39" value="开始" style="ellipse;whiteSpace=wrap;html=1;aspect=fixed;fontSize=14;fillColor=#d5e8d4;strokeColor=#82b366;" parent="1" vertex="1">
          <mxGeometry x="-907" y="1130" width="80" height="80" as="geometry" />
        </mxCell>
        <mxCell id="U2U8d9sQ9sILnOG547oe-40" value="结束" style="ellipse;whiteSpace=wrap;html=1;aspect=fixed;fontSize=14;fillColor=#f8cecc;strokeColor=#b85450;" parent="1" vertex="1">
          <mxGeometry x="-130" y="1260" width="80" height="80" as="geometry" />
        </mxCell>
        <mxCell id="Yt5vqHqGk30RE-sgk8aL-2" style="edgeStyle=orthogonalEdgeStyle;rounded=0;orthogonalLoop=1;jettySize=auto;html=1;exitX=0.5;exitY=1;exitDx=0;exitDy=0;entryX=0.5;entryY=0;entryDx=0;entryDy=0;" parent="1" source="Yt5vqHqGk30RE-sgk8aL-1" target="U2U8d9sQ9sILnOG547oe-36" edge="1">
          <mxGeometry relative="1" as="geometry" />
        </mxCell>
        <mxCell id="Yt5vqHqGk30RE-sgk8aL-1" value="NATAPP" style="rounded=1;whiteSpace=wrap;html=1;fillColor=#ffe6cc;strokeColor=#d79b00;" parent="1" vertex="1">
          <mxGeometry x="-440" y="1059.5" width="120" height="40" as="geometry" />
        </mxCell>
        <mxCell id="b_gnWmMxrn5kn90ioG4K-1" value="短信修改密码" style="rounded=1;whiteSpace=wrap;html=1;fontSize=14;fillColor=#d5e8d4;strokeColor=#82b366;" parent="1" vertex="1">
          <mxGeometry x="780" y="280" width="120" height="30" as="geometry" />
        </mxCell>
        <mxCell id="b_gnWmMxrn5kn90ioG4K-2" value="充值月度、&lt;br&gt;年度大会员" style="rounded=1;whiteSpace=wrap;html=1;fontSize=14;fillColor=#d5e8d4;strokeColor=#82b366;" parent="1" vertex="1">
          <mxGeometry x="780" y="320" width="120" height="40" as="geometry" />
        </mxCell>
        <mxCell id="GiAVZ2iymkBQcYbTgc6A-1" value="评论管理" style="rounded=1;whiteSpace=wrap;html=1;fontSize=14;fillColor=#f8cecc;strokeColor=#b85450;" vertex="1" parent="1">
          <mxGeometry x="-40" y="385" width="120" height="30" as="geometry" />
        </mxCell>
      </root>
    </mxGraphModel>
  </diagram>
</mxfile>
